<svg width="103" height="116" viewBox="0 0 103 116" fill="none" xmlns="http://www.w3.org/2000/svg">
<g filter="url(#filter0_ddd_22_471)">
<path d="M16.5 25.4619L20.7725 28.2736L16.5 31.4227V25.4619Z" fill="url(#paint0_linear_22_471)"/>
<path d="M16.5 25.4619L20.7725 28.2736L16.5 31.4227V25.4619Z" fill="url(#paint1_radial_22_471)" fill-opacity="0.06" style="mix-blend-mode:plus-darker"/>
<path d="M16.5 25.4619L20.7725 28.2736L16.5 31.4227V25.4619Z" fill="url(#paint2_radial_22_471)" fill-opacity="0.07" style="mix-blend-mode:plus-darker"/>
<g filter="url(#filter1_in_22_471)">
<path d="M39.8928 30.4597C37.2169 31.4044 35.344 33.3571 35.0741 36.4162C35.0517 36.6861 35.0292 36.9561 35.0292 37.2485V63.5657C36.1535 63.5657 38.1998 63.3857 40.426 62.2611C41.8877 61.5188 42.9221 60.5966 43.5742 59.8993V34.275L39.9398 30.4837L39.8928 30.4597Z" fill="url(#paint3_linear_22_471)"/>
<path d="M39.8928 30.4597C37.2169 31.4044 35.344 33.3571 35.0741 36.4162C35.0517 36.6861 35.0292 36.9561 35.0292 37.2485V63.5657C36.1535 63.5657 38.1998 63.3857 40.426 62.2611C41.8877 61.5188 42.9221 60.5966 43.5742 59.8993V34.275L39.9398 30.4837L39.8928 30.4597Z" fill="url(#paint4_linear_22_471)" fill-opacity="0.24" style="mix-blend-mode:color-burn"/>
<path d="M39.8928 30.4597C37.2169 31.4044 35.344 33.3571 35.0741 36.4162C35.0517 36.6861 35.0292 36.9561 35.0292 37.2485V63.5657C36.1535 63.5657 38.1998 63.3857 40.426 62.2611C41.8877 61.5188 42.9221 60.5966 43.5742 59.8993V34.275L39.9398 30.4837L39.8928 30.4597Z" fill="url(#paint5_radial_22_471)" fill-opacity="0.1" style="mix-blend-mode:plus-darker"/>
</g>
<g filter="url(#filter2_in_22_471)">
<path d="M59.6523 99.3075C59.0227 99.3525 58.3706 99.3975 57.7185 99.3975H43.2594C38.6946 99.3975 35.0067 94.7414 35.0067 91.9747V61.4062C36.1535 61.5637 38.1549 61.9686 40.2237 63.2957C41.8427 64.3304 42.9221 65.5225 43.5517 66.3773V90.5801C43.5517 90.5801 43.5517 90.6476 43.5517 90.7601C43.5517 90.8051 43.5517 90.8276 43.5517 90.8725C43.5517 90.985 43.5742 91.12 43.5967 91.2774C43.6192 91.4124 43.6417 91.5698 43.6866 91.7498C44.2713 94.1341 47.0147 99.3075 59.6074 99.3075H59.6523Z" fill="url(#paint6_linear_22_471)"/>
<path d="M59.6523 99.3075C59.0227 99.3525 58.3706 99.3975 57.7185 99.3975H43.2594C38.6946 99.3975 35.0067 94.7414 35.0067 91.9747V61.4062C36.1535 61.5637 38.1549 61.9686 40.2237 63.2957C41.8427 64.3304 42.9221 65.5225 43.5517 66.3773V90.5801C43.5517 90.5801 43.5517 90.6476 43.5517 90.7601C43.5517 90.8051 43.5517 90.8276 43.5517 90.8725C43.5517 90.985 43.5742 91.12 43.5967 91.2774C43.6192 91.4124 43.6417 91.5698 43.6866 91.7498C44.2713 94.1341 47.0147 99.3075 59.6074 99.3075H59.6523Z" fill="url(#paint7_linear_22_471)" fill-opacity="0.24" style="mix-blend-mode:color-burn"/>
<path d="M59.6523 99.3075C59.0227 99.3525 58.3706 99.3975 57.7185 99.3975H43.2594C38.6946 99.3975 35.0067 94.7414 35.0067 91.9747V61.4062C36.1535 61.5637 38.1549 61.9686 40.2237 63.2957C41.8427 64.3304 42.9221 65.5225 43.5517 66.3773V90.5801C43.5517 90.5801 43.5517 90.6476 43.5517 90.7601C43.5517 90.8051 43.5517 90.8276 43.5517 90.8725C43.5517 90.985 43.5742 91.12 43.5967 91.2774C43.6192 91.4124 43.6417 91.5698 43.6866 91.7498C44.2713 94.1341 47.0147 99.3075 59.6074 99.3075H59.6523Z" fill="url(#paint8_radial_22_471)" fill-opacity="0.04" style="mix-blend-mode:plus-darker"/>
</g>
<g filter="url(#filter3_in_22_471)">
<path d="M35.0583 37.2485C35.0583 36.9561 35.0583 36.6861 35.1033 36.4162C35.1033 36.2588 35.1482 36.1013 35.1707 35.9439C33.9339 30.3205 25.2765 28.2511 20.8016 28.2736L16.5516 31.4227C17.1812 31.4227 18.0582 31.4227 19.0926 31.5576C21.4088 31.8276 23.7474 32.5249 25.0741 34.5943C25.6363 35.449 26.0635 36.3937 26.3784 37.3609C26.8056 38.688 27.008 40.0826 27.008 41.4772V90.3103C27.008 91.2325 26.8955 92.1547 26.6257 93.032C25.3215 97.2607 21.3361 98.3868 16.5464 97.4196L16.5516 99.6675L20.8016 102.479C23.5225 102.367 25.5913 102.074 27.9524 101.422C29.3916 101.04 30.7183 100.635 31.8651 99.7125C33.5517 98.4079 35.0358 94.9889 35.0583 94.2241V37.271V37.2485Z" fill="#B9B9B9"/>
<path d="M35.0583 37.2485C35.0583 36.9561 35.0583 36.6861 35.1033 36.4162C35.1033 36.2588 35.1482 36.1013 35.1707 35.9439C33.9339 30.3205 25.2765 28.2511 20.8016 28.2736L16.5516 31.4227C17.1812 31.4227 18.0582 31.4227 19.0926 31.5576C21.4088 31.8276 23.7474 32.5249 25.0741 34.5943C25.6363 35.449 26.0635 36.3937 26.3784 37.3609C26.8056 38.688 27.008 40.0826 27.008 41.4772V90.3103C27.008 91.2325 26.8955 92.1547 26.6257 93.032C25.3215 97.2607 21.3361 98.3868 16.5464 97.4196L16.5516 99.6675L20.8016 102.479C23.5225 102.367 25.5913 102.074 27.9524 101.422C29.3916 101.04 30.7183 100.635 31.8651 99.7125C33.5517 98.4079 35.0358 94.9889 35.0583 94.2241V37.271V37.2485Z" fill="#ECECEC"/>
<path d="M35.0583 37.2485C35.0583 36.9561 35.0583 36.6861 35.1033 36.4162C35.1033 36.2588 35.1482 36.1013 35.1707 35.9439C33.9339 30.3205 25.2765 28.2511 20.8016 28.2736L16.5516 31.4227C17.1812 31.4227 18.0582 31.4227 19.0926 31.5576C21.4088 31.8276 23.7474 32.5249 25.0741 34.5943C25.6363 35.449 26.0635 36.3937 26.3784 37.3609C26.8056 38.688 27.008 40.0826 27.008 41.4772V90.3103C27.008 91.2325 26.8955 92.1547 26.6257 93.032C25.3215 97.2607 21.3361 98.3868 16.5464 97.4196L16.5516 99.6675L20.8016 102.479C23.5225 102.367 25.5913 102.074 27.9524 101.422C29.3916 101.04 30.7183 100.635 31.8651 99.7125C33.5517 98.4079 35.0358 94.9889 35.0583 94.2241V37.271V37.2485Z" fill="url(#paint9_linear_22_471)" fill-opacity="0.44" style="mix-blend-mode:plus-darker"/>
<path d="M35.0583 37.2485C35.0583 36.9561 35.0583 36.6861 35.1033 36.4162C35.1033 36.2588 35.1482 36.1013 35.1707 35.9439C33.9339 30.3205 25.2765 28.2511 20.8016 28.2736L16.5516 31.4227C17.1812 31.4227 18.0582 31.4227 19.0926 31.5576C21.4088 31.8276 23.7474 32.5249 25.0741 34.5943C25.6363 35.449 26.0635 36.3937 26.3784 37.3609C26.8056 38.688 27.008 40.0826 27.008 41.4772V90.3103C27.008 91.2325 26.8955 92.1547 26.6257 93.032C25.3215 97.2607 21.3361 98.3868 16.5464 97.4196L16.5516 99.6675L20.8016 102.479C23.5225 102.367 25.5913 102.074 27.9524 101.422C29.3916 101.04 30.7183 100.635 31.8651 99.7125C33.5517 98.4079 35.0358 94.9889 35.0583 94.2241V37.271V37.2485Z" fill="url(#paint10_linear_22_471)" fill-opacity="0.29" style="mix-blend-mode:plus-darker"/>
<path d="M35.0583 37.2485C35.0583 36.9561 35.0583 36.6861 35.1033 36.4162C35.1033 36.2588 35.1482 36.1013 35.1707 35.9439C33.9339 30.3205 25.2765 28.2511 20.8016 28.2736L16.5516 31.4227C17.1812 31.4227 18.0582 31.4227 19.0926 31.5576C21.4088 31.8276 23.7474 32.5249 25.0741 34.5943C25.6363 35.449 26.0635 36.3937 26.3784 37.3609C26.8056 38.688 27.008 40.0826 27.008 41.4772V90.3103C27.008 91.2325 26.8955 92.1547 26.6257 93.032C25.3215 97.2607 21.3361 98.3868 16.5464 97.4196L16.5516 99.6675L20.8016 102.479C23.5225 102.367 25.5913 102.074 27.9524 101.422C29.3916 101.04 30.7183 100.635 31.8651 99.7125C33.5517 98.4079 35.0358 94.9889 35.0583 94.2241V37.271V37.2485Z" fill="url(#paint11_linear_22_471)" fill-opacity="0.65" style="mix-blend-mode:multiply"/>
<path d="M35.3215 34.9992C35.3215 34.9767 35.3215 34.9317 35.344 34.9092C35.344 34.9317 35.344 34.9767 35.3215 34.9992Z" fill="#B9B9B9"/>
<path d="M35.3215 34.9992C35.3215 34.9767 35.3215 34.9317 35.344 34.9092C35.344 34.9317 35.344 34.9767 35.3215 34.9992Z" fill="#ECECEC"/>
<path d="M35.3215 34.9992C35.3215 34.9767 35.3215 34.9317 35.344 34.9092C35.344 34.9317 35.344 34.9767 35.3215 34.9992Z" fill="url(#paint12_linear_22_471)" fill-opacity="0.44" style="mix-blend-mode:plus-darker"/>
<path d="M35.3215 34.9992C35.3215 34.9767 35.3215 34.9317 35.344 34.9092C35.344 34.9317 35.344 34.9767 35.3215 34.9992Z" fill="url(#paint13_linear_22_471)" fill-opacity="0.29" style="mix-blend-mode:plus-darker"/>
<path d="M35.3215 34.9992C35.3215 34.9767 35.3215 34.9317 35.344 34.9092C35.344 34.9317 35.344 34.9767 35.3215 34.9992Z" fill="url(#paint14_linear_22_471)" fill-opacity="0.65" style="mix-blend-mode:multiply"/>
<path d="M35.6588 34.1219C35.6588 34.0769 35.6813 34.0544 35.7038 34.0094C35.7038 34.0544 35.6588 34.0769 35.6588 34.1219Z" fill="#B9B9B9"/>
<path d="M35.6588 34.1219C35.6588 34.0769 35.6813 34.0544 35.7038 34.0094C35.7038 34.0544 35.6588 34.0769 35.6588 34.1219Z" fill="#ECECEC"/>
<path d="M35.6588 34.1219C35.6588 34.0769 35.6813 34.0544 35.7038 34.0094C35.7038 34.0544 35.6588 34.0769 35.6588 34.1219Z" fill="url(#paint15_linear_22_471)" fill-opacity="0.44" style="mix-blend-mode:plus-darker"/>
<path d="M35.6588 34.1219C35.6588 34.0769 35.6813 34.0544 35.7038 34.0094C35.7038 34.0544 35.6588 34.0769 35.6588 34.1219Z" fill="url(#paint16_linear_22_471)" fill-opacity="0.29" style="mix-blend-mode:plus-darker"/>
<path d="M35.6588 34.1219C35.6588 34.0769 35.6813 34.0544 35.7038 34.0094C35.7038 34.0544 35.6588 34.0769 35.6588 34.1219Z" fill="url(#paint17_linear_22_471)" fill-opacity="0.65" style="mix-blend-mode:multiply"/>
<path d="M35.4789 34.5492C35.4789 34.5267 35.5014 34.4817 35.5239 34.4592C35.5239 34.4817 35.5014 34.5267 35.4789 34.5492Z" fill="#B9B9B9"/>
<path d="M35.4789 34.5492C35.4789 34.5267 35.5014 34.4817 35.5239 34.4592C35.5239 34.4817 35.5014 34.5267 35.4789 34.5492Z" fill="#ECECEC"/>
<path d="M35.4789 34.5492C35.4789 34.5267 35.5014 34.4817 35.5239 34.4592C35.5239 34.4817 35.5014 34.5267 35.4789 34.5492Z" fill="url(#paint18_linear_22_471)" fill-opacity="0.44" style="mix-blend-mode:plus-darker"/>
<path d="M35.4789 34.5492C35.4789 34.5267 35.5014 34.4817 35.5239 34.4592C35.5239 34.4817 35.5014 34.5267 35.4789 34.5492Z" fill="url(#paint19_linear_22_471)" fill-opacity="0.29" style="mix-blend-mode:plus-darker"/>
<path d="M35.4789 34.5492C35.4789 34.5267 35.5014 34.4817 35.5239 34.4592C35.5239 34.4817 35.5014 34.5267 35.4789 34.5492Z" fill="url(#paint20_linear_22_471)" fill-opacity="0.65" style="mix-blend-mode:multiply"/>
</g>
<path d="M20.8311 100.207L16.5449 103.379L16.5449 97.4182L20.8311 100.207Z" fill="black"/>
<path d="M20.8311 100.207L16.5449 103.379L16.5449 97.4182L20.8311 100.207Z" fill="url(#paint21_linear_22_471)"/>
<path d="M20.8311 100.207L16.5449 103.379L16.5449 97.4182L20.8311 100.207Z" fill="url(#paint22_radial_22_471)" fill-opacity="0.06" style="mix-blend-mode:plus-darker"/>
<path d="M20.8311 100.207L16.5449 103.379L16.5449 97.4182L20.8311 100.207Z" fill="url(#paint23_radial_22_471)" fill-opacity="0.07" style="mix-blend-mode:plus-darker"/>
<g filter="url(#filter4_in_22_471)">
<path d="M81.667 40.465C80.8125 38.1932 78.7886 33.8519 74.3812 30.5004C68.827 26.4966 63.7674 25.7093 57.4936 25.4619H16.5L20.75 28.2511C25.2249 28.2511 33.8824 30.3205 35.1191 35.9213C35.5464 33.1321 37.3678 31.3552 39.9088 30.4779C41.2805 30.0056 42.8321 29.7581 44.5186 29.7581H56.774C61.6536 29.7581 66.196 31.3552 69.5915 34.2568C72.987 37.1585 74.831 40.9598 74.7635 45.0086V47.4154C74.9209 51.6667 74.3812 55.8054 70.8283 58.887C69.1418 60.3266 67.6688 61.5047 66.0723 62.3145H73.7538C74.8107 61.6622 76.0228 60.7765 77.1921 59.6743C80.3402 56.4578 81.5995 54.2084 82.2741 51.0818C83.0387 47.9328 82.7238 43.2991 81.667 40.4875V40.465Z" fill="#ECECEC"/>
<path d="M81.667 40.465C80.8125 38.1932 78.7886 33.8519 74.3812 30.5004C68.827 26.4966 63.7674 25.7093 57.4936 25.4619H16.5L20.75 28.2511C25.2249 28.2511 33.8824 30.3205 35.1191 35.9213C35.5464 33.1321 37.3678 31.3552 39.9088 30.4779C41.2805 30.0056 42.8321 29.7581 44.5186 29.7581H56.774C61.6536 29.7581 66.196 31.3552 69.5915 34.2568C72.987 37.1585 74.831 40.9598 74.7635 45.0086V47.4154C74.9209 51.6667 74.3812 55.8054 70.8283 58.887C69.1418 60.3266 67.6688 61.5047 66.0723 62.3145H73.7538C74.8107 61.6622 76.0228 60.7765 77.1921 59.6743C80.3402 56.4578 81.5995 54.2084 82.2741 51.0818C83.0387 47.9328 82.7238 43.2991 81.667 40.4875V40.465Z" fill="url(#paint24_linear_22_471)" fill-opacity="0.44" style="mix-blend-mode:plus-darker"/>
<path d="M81.667 40.465C80.8125 38.1932 78.7886 33.8519 74.3812 30.5004C68.827 26.4966 63.7674 25.7093 57.4936 25.4619H16.5L20.75 28.2511C25.2249 28.2511 33.8824 30.3205 35.1191 35.9213C35.5464 33.1321 37.3678 31.3552 39.9088 30.4779C41.2805 30.0056 42.8321 29.7581 44.5186 29.7581H56.774C61.6536 29.7581 66.196 31.3552 69.5915 34.2568C72.987 37.1585 74.831 40.9598 74.7635 45.0086V47.4154C74.9209 51.6667 74.3812 55.8054 70.8283 58.887C69.1418 60.3266 67.6688 61.5047 66.0723 62.3145H73.7538C74.8107 61.6622 76.0228 60.7765 77.1921 59.6743C80.3402 56.4578 81.5995 54.2084 82.2741 51.0818C83.0387 47.9328 82.7238 43.2991 81.667 40.4875V40.465Z" fill="url(#paint25_linear_22_471)" fill-opacity="0.16" style="mix-blend-mode:plus-lighter"/>
</g>
<g filter="url(#filter5_n_22_471)">
<path d="M78.9685 65.4551C78.114 64.8028 77.1695 64.1505 76.1127 63.5207C75.3256 63.0483 74.5386 62.6434 73.819 62.306H66.1285L65.9018 62.306C68.7351 63.4307 71.0306 65.3651 72.4923 66.7372C76.1801 70.1787 76.7129 74.5935 77.0502 79.3396V81.5108C77.0502 86.0242 75.3706 90.6926 71.6827 94.1116C68.4446 97.1033 64.2396 98.9252 59.6972 99.3076C59.0676 99.3526 58.4155 99.3976 57.7634 99.3976H43.3043C38.7395 99.3976 35.0516 94.7414 35.0516 91.9748C35.0066 92.7395 33.545 96.1585 31.8585 97.4631C30.7117 98.3854 29.3849 98.7903 27.9458 99.1726C25.6071 99.8025 23.5489 100.095 20.828 100.208L16.5449 103.379H57.516C61.3388 103.244 65.4988 102.772 69.2542 102.097C70.0637 101.939 80.7 99.6 84.905 89.2306C88.1431 81.1555 86.2767 70.8535 78.991 65.4776L78.9685 65.4551Z" fill="#7F7F7F"/>
<path d="M78.9685 65.4551C78.114 64.8028 77.1695 64.1505 76.1127 63.5207C75.3256 63.0483 74.5386 62.6434 73.819 62.306H66.1285L65.9018 62.306C68.7351 63.4307 71.0306 65.3651 72.4923 66.7372C76.1801 70.1787 76.7129 74.5935 77.0502 79.3396V81.5108C77.0502 86.0242 75.3706 90.6926 71.6827 94.1116C68.4446 97.1033 64.2396 98.9252 59.6972 99.3076C59.0676 99.3526 58.4155 99.3976 57.7634 99.3976H43.3043C38.7395 99.3976 35.0516 94.7414 35.0516 91.9748C35.0066 92.7395 33.545 96.1585 31.8585 97.4631C30.7117 98.3854 29.3849 98.7903 27.9458 99.1726C25.6071 99.8025 23.5489 100.095 20.828 100.208L16.5449 103.379H57.516C61.3388 103.244 65.4988 102.772 69.2542 102.097C70.0637 101.939 80.7 99.6 84.905 89.2306C88.1431 81.1555 86.2767 70.8535 78.991 65.4776L78.9685 65.4551Z" fill="#B9B9B9"/>
<path d="M78.9685 65.4551C78.114 64.8028 77.1695 64.1505 76.1127 63.5207C75.3256 63.0483 74.5386 62.6434 73.819 62.306H66.1285L65.9018 62.306C68.7351 63.4307 71.0306 65.3651 72.4923 66.7372C76.1801 70.1787 76.7129 74.5935 77.0502 79.3396V81.5108C77.0502 86.0242 75.3706 90.6926 71.6827 94.1116C68.4446 97.1033 64.2396 98.9252 59.6972 99.3076C59.0676 99.3526 58.4155 99.3976 57.7634 99.3976H43.3043C38.7395 99.3976 35.0516 94.7414 35.0516 91.9748C35.0066 92.7395 33.545 96.1585 31.8585 97.4631C30.7117 98.3854 29.3849 98.7903 27.9458 99.1726C25.6071 99.8025 23.5489 100.095 20.828 100.208L16.5449 103.379H57.516C61.3388 103.244 65.4988 102.772 69.2542 102.097C70.0637 101.939 80.7 99.6 84.905 89.2306C88.1431 81.1555 86.2767 70.8535 78.991 65.4776L78.9685 65.4551Z" fill="#ECECEC"/>
<path d="M78.9685 65.4551C78.114 64.8028 77.1695 64.1505 76.1127 63.5207C75.3256 63.0483 74.5386 62.6434 73.819 62.306H66.1285L65.9018 62.306C68.7351 63.4307 71.0306 65.3651 72.4923 66.7372C76.1801 70.1787 76.7129 74.5935 77.0502 79.3396V81.5108C77.0502 86.0242 75.3706 90.6926 71.6827 94.1116C68.4446 97.1033 64.2396 98.9252 59.6972 99.3076C59.0676 99.3526 58.4155 99.3976 57.7634 99.3976H43.3043C38.7395 99.3976 35.0516 94.7414 35.0516 91.9748C35.0066 92.7395 33.545 96.1585 31.8585 97.4631C30.7117 98.3854 29.3849 98.7903 27.9458 99.1726C25.6071 99.8025 23.5489 100.095 20.828 100.208L16.5449 103.379H57.516C61.3388 103.244 65.4988 102.772 69.2542 102.097C70.0637 101.939 80.7 99.6 84.905 89.2306C88.1431 81.1555 86.2767 70.8535 78.991 65.4776L78.9685 65.4551Z" fill="url(#paint26_linear_22_471)" fill-opacity="0.44" style="mix-blend-mode:plus-darker"/>
<path d="M78.9685 65.4551C78.114 64.8028 77.1695 64.1505 76.1127 63.5207C75.3256 63.0483 74.5386 62.6434 73.819 62.306H66.1285L65.9018 62.306C68.7351 63.4307 71.0306 65.3651 72.4923 66.7372C76.1801 70.1787 76.7129 74.5935 77.0502 79.3396V81.5108C77.0502 86.0242 75.3706 90.6926 71.6827 94.1116C68.4446 97.1033 64.2396 98.9252 59.6972 99.3076C59.0676 99.3526 58.4155 99.3976 57.7634 99.3976H43.3043C38.7395 99.3976 35.0516 94.7414 35.0516 91.9748C35.0066 92.7395 33.545 96.1585 31.8585 97.4631C30.7117 98.3854 29.3849 98.7903 27.9458 99.1726C25.6071 99.8025 23.5489 100.095 20.828 100.208L16.5449 103.379H57.516C61.3388 103.244 65.4988 102.772 69.2542 102.097C70.0637 101.939 80.7 99.6 84.905 89.2306C88.1431 81.1555 86.2767 70.8535 78.991 65.4776L78.9685 65.4551Z" fill="url(#paint27_linear_22_471)" fill-opacity="0.55" style="mix-blend-mode:overlay"/>
<path d="M78.9685 65.4551C78.114 64.8028 77.1695 64.1505 76.1127 63.5207C75.3256 63.0483 74.5386 62.6434 73.819 62.306H66.1285L65.9018 62.306C68.7351 63.4307 71.0306 65.3651 72.4923 66.7372C76.1801 70.1787 76.7129 74.5935 77.0502 79.3396V81.5108C77.0502 86.0242 75.3706 90.6926 71.6827 94.1116C68.4446 97.1033 64.2396 98.9252 59.6972 99.3076C59.0676 99.3526 58.4155 99.3976 57.7634 99.3976H43.3043C38.7395 99.3976 35.0516 94.7414 35.0516 91.9748C35.0066 92.7395 33.545 96.1585 31.8585 97.4631C30.7117 98.3854 29.3849 98.7903 27.9458 99.1726C25.6071 99.8025 23.5489 100.095 20.828 100.208L16.5449 103.379H57.516C61.3388 103.244 65.4988 102.772 69.2542 102.097C70.0637 101.939 80.7 99.6 84.905 89.2306C88.1431 81.1555 86.2767 70.8535 78.991 65.4776L78.9685 65.4551Z" fill="url(#paint28_linear_22_471)" fill-opacity="0.6" style="mix-blend-mode:multiply"/>
</g>
<g filter="url(#filter6_in_22_471)">
<path d="M54.2105 34.2793C60.3044 34.2793 65.2065 39.2953 65.1166 45.3685V47.9328C65.3415 54.4333 60.102 59.8992 53.5808 59.8992H43.5742C42.8996 60.5965 41.8652 61.5188 40.426 62.261C40.4035 62.261 40.381 62.261 40.3585 62.306H66.1285C67.7251 61.4963 69.1642 60.3716 70.8507 58.9095C74.4037 55.8279 74.9434 51.6892 74.7859 47.4379V45.0311C74.8534 40.9823 73.032 37.1809 69.614 34.2793C66.196 31.3777 61.673 29.7471 56.8158 29.7471H44.5605C42.8964 29.7471 41.2679 29.9652 39.8962 30.46L43.5746 34.2793H54.2554H54.2105Z" fill="url(#paint29_radial_22_471)"/>
<path d="M54.2105 34.2793C60.3044 34.2793 65.2065 39.2953 65.1166 45.3685V47.9328C65.3415 54.4333 60.102 59.8992 53.5808 59.8992H43.5742C42.8996 60.5965 41.8652 61.5188 40.426 62.261C40.4035 62.261 40.381 62.261 40.3585 62.306H66.1285C67.7251 61.4963 69.1642 60.3716 70.8507 58.9095C74.4037 55.8279 74.9434 51.6892 74.7859 47.4379V45.0311C74.8534 40.9823 73.032 37.1809 69.614 34.2793C66.196 31.3777 61.673 29.7471 56.8158 29.7471H44.5605C42.8964 29.7471 41.2679 29.9652 39.8962 30.46L43.5746 34.2793H54.2554H54.2105Z" fill="url(#paint30_linear_22_471)" fill-opacity="0.11" style="mix-blend-mode:plus-darker"/>
<path d="M54.2105 34.2793C60.3044 34.2793 65.2065 39.2953 65.1166 45.3685V47.9328C65.3415 54.4333 60.102 59.8992 53.5808 59.8992H43.5742C42.8996 60.5965 41.8652 61.5188 40.426 62.261C40.4035 62.261 40.381 62.261 40.3585 62.306H66.1285C67.7251 61.4963 69.1642 60.3716 70.8507 58.9095C74.4037 55.8279 74.9434 51.6892 74.7859 47.4379V45.0311C74.8534 40.9823 73.032 37.1809 69.614 34.2793C66.196 31.3777 61.673 29.7471 56.8158 29.7471H44.5605C42.8964 29.7471 41.2679 29.9652 39.8962 30.46L43.5746 34.2793H54.2554H54.2105Z" fill="url(#paint31_linear_22_471)" fill-opacity="0.14" style="mix-blend-mode:plus-darker"/>
</g>
<g filter="url(#filter7_in_22_471)">
<path d="M77.1021 81.5154V79.356C76.7648 74.6099 76.1576 70.1787 72.4698 66.7372C71.0081 65.3651 68.8044 63.4307 65.9036 62.306H40.336C39.9762 62.486 39.6389 62.6434 39.3016 62.7559C39.6165 62.9134 39.9313 63.0933 40.2461 63.2957C41.8651 64.3304 42.9445 65.5226 43.5741 66.3773H55.3123C62.5081 66.3773 68.2872 72.3831 68.0623 79.5359V81.8303C68.3322 88.9382 62.6205 94.9214 55.4922 94.9214H47.9141C45.9353 94.9214 44.2125 93.6367 43.6953 91.8147C44.28 94.199 47.128 99.3301 59.6747 99.3301C64.2396 98.9252 68.4446 97.1257 71.6602 94.1341C75.3481 90.7151 77.282 86.2614 77.1021 81.5378V81.5154Z" fill="url(#paint32_radial_22_471)"/>
<path d="M77.1021 81.5154V79.356C76.7648 74.6099 76.1576 70.1787 72.4698 66.7372C71.0081 65.3651 68.8044 63.4307 65.9036 62.306H40.336C39.9762 62.486 39.6389 62.6434 39.3016 62.7559C39.6165 62.9134 39.9313 63.0933 40.2461 63.2957C41.8651 64.3304 42.9445 65.5226 43.5741 66.3773H55.3123C62.5081 66.3773 68.2872 72.3831 68.0623 79.5359V81.8303C68.3322 88.9382 62.6205 94.9214 55.4922 94.9214H47.9141C45.9353 94.9214 44.2125 93.6367 43.6953 91.8147C44.28 94.199 47.128 99.3301 59.6747 99.3301C64.2396 98.9252 68.4446 97.1257 71.6602 94.1341C75.3481 90.7151 77.282 86.2614 77.1021 81.5378V81.5154Z" fill="url(#paint33_linear_22_471)" fill-opacity="0.11" style="mix-blend-mode:plus-darker"/>
<path d="M77.1021 81.5154V79.356C76.7648 74.6099 76.1576 70.1787 72.4698 66.7372C71.0081 65.3651 68.8044 63.4307 65.9036 62.306H40.336C39.9762 62.486 39.6389 62.6434 39.3016 62.7559C39.6165 62.9134 39.9313 63.0933 40.2461 63.2957C41.8651 64.3304 42.9445 65.5226 43.5741 66.3773H55.3123C62.5081 66.3773 68.2872 72.3831 68.0623 79.5359V81.8303C68.3322 88.9382 62.6205 94.9214 55.4922 94.9214H47.9141C45.9353 94.9214 44.2125 93.6367 43.6953 91.8147C44.28 94.199 47.128 99.3301 59.6747 99.3301C64.2396 98.9252 68.4446 97.1257 71.6602 94.1341C75.3481 90.7151 77.282 86.2614 77.1021 81.5378V81.5154Z" fill="url(#paint34_linear_22_471)" fill-opacity="0.14" style="mix-blend-mode:plus-darker"/>
<path d="M77.1021 81.5154V79.356C76.7648 74.6099 76.1576 70.1787 72.4698 66.7372C71.0081 65.3651 68.8044 63.4307 65.9036 62.306H40.336C39.9762 62.486 39.6389 62.6434 39.3016 62.7559C39.6165 62.9134 39.9313 63.0933 40.2461 63.2957C41.8651 64.3304 42.9445 65.5226 43.5741 66.3773H55.3123C62.5081 66.3773 68.2872 72.3831 68.0623 79.5359V81.8303C68.3322 88.9382 62.6205 94.9214 55.4922 94.9214H47.9141C45.9353 94.9214 44.2125 93.6367 43.6953 91.8147C44.28 94.199 47.128 99.3301 59.6747 99.3301C64.2396 98.9252 68.4446 97.1257 71.6602 94.1341C75.3481 90.7151 77.282 86.2614 77.1021 81.5378V81.5154Z" fill="url(#paint35_linear_22_471)"/>
<path d="M77.1021 81.5154V79.356C76.7648 74.6099 76.1576 70.1787 72.4698 66.7372C71.0081 65.3651 68.8044 63.4307 65.9036 62.306H40.336C39.9762 62.486 39.6389 62.6434 39.3016 62.7559C39.6165 62.9134 39.9313 63.0933 40.2461 63.2957C41.8651 64.3304 42.9445 65.5226 43.5741 66.3773H55.3123C62.5081 66.3773 68.2872 72.3831 68.0623 79.5359V81.8303C68.3322 88.9382 62.6205 94.9214 55.4922 94.9214H47.9141C45.9353 94.9214 44.2125 93.6367 43.6953 91.8147C44.28 94.199 47.128 99.3301 59.6747 99.3301C64.2396 98.9252 68.4446 97.1257 71.6602 94.1341C75.3481 90.7151 77.282 86.2614 77.1021 81.5378V81.5154Z" fill="url(#paint36_radial_22_471)" fill-opacity="0.2" style="mix-blend-mode:plus-lighter"/>
</g>
</g>
<defs>
<filter id="filter0_ddd_22_471" x="0.516892" y="0.489679" width="101.902" height="114.816" filterUnits="userSpaceOnUse" color-interpolation-filters="sRGB">
<feFlood flood-opacity="0" result="BackgroundImageFix"/>
<feColorMatrix in="SourceAlpha" type="matrix" values="0 0 0 0 0 0 0 0 0 0 0 0 0 0 0 0 0 0 127 0" result="hardAlpha"/>
<feOffset dy="2.19247"/>
<feGaussianBlur stdDeviation="0.767365"/>
<feComposite in2="hardAlpha" operator="out"/>
<feColorMatrix type="matrix" values="0 0 0 0 0 0 0 0 0 0 0 0 0 0 0 0 0 0 0.42 0"/>
<feBlend mode="normal" in2="BackgroundImageFix" result="effect1_dropShadow_22_471"/>
<feColorMatrix in="SourceAlpha" type="matrix" values="0 0 0 0 0 0 0 0 0 0 0 0 0 0 0 0 0 0 127 0" result="hardAlpha"/>
<feOffset dx="2.41172" dy="4.38494"/>
<feGaussianBlur stdDeviation="3.77105"/>
<feColorMatrix type="matrix" values="0 0 0 0 0 0 0 0 0 0 0 0 0 0 0 0 0 0 0.19 0"/>
<feBlend mode="normal" in2="effect1_dropShadow_22_471" result="effect2_dropShadow_22_471"/>
<feColorMatrix in="SourceAlpha" type="matrix" values="0 0 0 0 0 0 0 0 0 0 0 0 0 0 0 0 0 0 127 0" result="hardAlpha"/>
<feOffset dy="-8.98913"/>
<feGaussianBlur stdDeviation="7.99155"/>
<feComposite in2="hardAlpha" operator="out"/>
<feColorMatrix type="matrix" values="0 0 0 0 1 0 0 0 0 1 0 0 0 0 1 0 0 0 0.4 0"/>
<feBlend mode="soft-light" in2="effect2_dropShadow_22_471" result="effect3_dropShadow_22_471"/>
<feBlend mode="normal" in="SourceGraphic" in2="effect3_dropShadow_22_471" result="shape"/>
</filter>
<filter id="filter1_in_22_471" x="35.0292" y="30.4597" width="11.8337" height="33.106" filterUnits="userSpaceOnUse" color-interpolation-filters="sRGB">
<feFlood flood-opacity="0" result="BackgroundImageFix"/>
<feBlend mode="normal" in="SourceGraphic" in2="BackgroundImageFix" result="shape"/>
<feColorMatrix in="SourceAlpha" type="matrix" values="0 0 0 0 0 0 0 0 0 0 0 0 0 0 0 0 0 0 127 0" result="hardAlpha"/>
<feOffset dx="3.28871"/>
<feGaussianBlur stdDeviation="1.97322"/>
<feComposite in2="hardAlpha" operator="arithmetic" k2="-1" k3="1"/>
<feColorMatrix type="matrix" values="0 0 0 0 1 0 0 0 0 1 0 0 0 0 1 0 0 0 0.22 0"/>
<feBlend mode="plus-lighter" in2="shape" result="effect1_innerShadow_22_471"/>
<feTurbulence type="fractalNoise" baseFrequency="7.6017756462097168 7.6017756462097168" stitchTiles="stitch" numOctaves="3" result="noise" seed="4846" />
<feColorMatrix in="noise" type="luminanceToAlpha" result="alphaNoise" />
<feComponentTransfer in="alphaNoise" result="coloredNoise1">
<feFuncA type="discrete" tableValues="1 1 1 1 1 1 1 1 1 1 1 1 1 1 1 1 1 1 1 1 1 1 1 1 1 1 1 1 1 1 1 1 1 1 1 1 1 1 1 1 1 1 1 1 1 1 1 1 1 1 1 0 0 0 0 0 0 0 0 0 0 0 0 0 0 0 0 0 0 0 0 0 0 0 0 0 0 0 0 0 0 0 0 0 0 0 0 0 0 0 0 0 0 0 0 0 0 0 0 0 "/>
</feComponentTransfer>
<feComposite operator="in" in2="effect1_innerShadow_22_471" in="coloredNoise1" result="noise1Clipped" />
<feComponentTransfer in="alphaNoise" result="coloredNoise2">
<feFuncA type="discrete" tableValues="0 0 0 0 0 0 0 0 0 0 0 0 0 0 0 0 0 0 0 0 0 0 0 0 0 0 0 0 0 0 0 0 0 0 0 0 0 0 0 0 0 0 0 0 0 0 0 0 0 1 1 1 1 1 1 1 1 1 1 1 1 1 1 1 1 1 1 1 1 1 1 1 1 1 1 1 1 1 1 1 1 1 1 1 1 1 1 1 1 1 1 1 1 1 1 1 1 1 1 1 "/>
</feComponentTransfer>
<feComposite operator="in" in2="effect1_innerShadow_22_471" in="coloredNoise2" result="noise2Clipped" />
<feFlood flood-color="rgba(143, 143, 143, 0.25)" result="color1Flood" />
<feComposite operator="in" in2="noise1Clipped" in="color1Flood" result="color1" />
<feFlood flood-color="rgba(128, 128, 128, 0.25)" result="color2Flood" />
<feComposite operator="in" in2="noise2Clipped" in="color2Flood" result="color2" />
<feMerge result="effect2_noise_22_471">
<feMergeNode in="effect1_innerShadow_22_471" />
<feMergeNode in="color1" />
<feMergeNode in="color2" />
</feMerge>
</filter>
<filter id="filter2_in_22_471" x="35.0067" y="61.4062" width="27.9343" height="37.9913" filterUnits="userSpaceOnUse" color-interpolation-filters="sRGB">
<feFlood flood-opacity="0" result="BackgroundImageFix"/>
<feBlend mode="normal" in="SourceGraphic" in2="BackgroundImageFix" result="shape"/>
<feColorMatrix in="SourceAlpha" type="matrix" values="0 0 0 0 0 0 0 0 0 0 0 0 0 0 0 0 0 0 127 0" result="hardAlpha"/>
<feOffset dx="3.28871"/>
<feGaussianBlur stdDeviation="1.97322"/>
<feComposite in2="hardAlpha" operator="arithmetic" k2="-1" k3="1"/>
<feColorMatrix type="matrix" values="0 0 0 0 1 0 0 0 0 1 0 0 0 0 1 0 0 0 0.22 0"/>
<feBlend mode="plus-lighter" in2="shape" result="effect1_innerShadow_22_471"/>
<feTurbulence type="fractalNoise" baseFrequency="7.6017756462097168 7.6017756462097168" stitchTiles="stitch" numOctaves="3" result="noise" seed="4846" />
<feColorMatrix in="noise" type="luminanceToAlpha" result="alphaNoise" />
<feComponentTransfer in="alphaNoise" result="coloredNoise1">
<feFuncA type="discrete" tableValues="1 1 1 1 1 1 1 1 1 1 1 1 1 1 1 1 1 1 1 1 1 1 1 1 1 1 1 1 1 1 1 1 1 1 1 1 1 1 1 1 1 1 1 1 1 1 1 1 1 1 1 0 0 0 0 0 0 0 0 0 0 0 0 0 0 0 0 0 0 0 0 0 0 0 0 0 0 0 0 0 0 0 0 0 0 0 0 0 0 0 0 0 0 0 0 0 0 0 0 0 "/>
</feComponentTransfer>
<feComposite operator="in" in2="effect1_innerShadow_22_471" in="coloredNoise1" result="noise1Clipped" />
<feComponentTransfer in="alphaNoise" result="coloredNoise2">
<feFuncA type="discrete" tableValues="0 0 0 0 0 0 0 0 0 0 0 0 0 0 0 0 0 0 0 0 0 0 0 0 0 0 0 0 0 0 0 0 0 0 0 0 0 0 0 0 0 0 0 0 0 0 0 0 0 1 1 1 1 1 1 1 1 1 1 1 1 1 1 1 1 1 1 1 1 1 1 1 1 1 1 1 1 1 1 1 1 1 1 1 1 1 1 1 1 1 1 1 1 1 1 1 1 1 1 1 "/>
</feComponentTransfer>
<feComposite operator="in" in2="effect1_innerShadow_22_471" in="coloredNoise2" result="noise2Clipped" />
<feFlood flood-color="rgba(143, 143, 143, 0.25)" result="color1Flood" />
<feComposite operator="in" in2="noise1Clipped" in="color1Flood" result="color1" />
<feFlood flood-color="rgba(128, 128, 128, 0.25)" result="color2Flood" />
<feComposite operator="in" in2="noise2Clipped" in="color2Flood" result="color2" />
<feMerge result="effect2_noise_22_471">
<feMergeNode in="effect1_innerShadow_22_471" />
<feMergeNode in="color1" />
<feMergeNode in="color2" />
</feMerge>
</filter>
<filter id="filter3_in_22_471" x="16.2231" y="28.2734" width="19.4807" height="74.2058" filterUnits="userSpaceOnUse" color-interpolation-filters="sRGB">
<feFlood flood-opacity="0" result="BackgroundImageFix"/>
<feBlend mode="normal" in="SourceGraphic" in2="BackgroundImageFix" result="shape"/>
<feColorMatrix in="SourceAlpha" type="matrix" values="0 0 0 0 0 0 0 0 0 0 0 0 0 0 0 0 0 0 127 0" result="hardAlpha"/>
<feOffset dx="-0.538864"/>
<feGaussianBlur stdDeviation="0.161659"/>
<feComposite in2="hardAlpha" operator="arithmetic" k2="-1" k3="1"/>
<feColorMatrix type="matrix" values="0 0 0 0 1 0 0 0 0 1 0 0 0 0 1 0 0 0 0.51 0"/>
<feBlend mode="normal" in2="shape" result="effect1_innerShadow_22_471"/>
<feTurbulence type="fractalNoise" baseFrequency="7.6017756462097168 7.6017756462097168" stitchTiles="stitch" numOctaves="3" result="noise" seed="4846" />
<feColorMatrix in="noise" type="luminanceToAlpha" result="alphaNoise" />
<feComponentTransfer in="alphaNoise" result="coloredNoise1">
<feFuncA type="discrete" tableValues="1 1 1 1 1 1 1 1 1 1 1 1 1 1 1 1 1 1 1 1 1 1 1 1 1 1 1 1 1 1 1 1 1 1 1 1 1 1 1 1 1 1 1 1 1 1 1 1 1 1 1 0 0 0 0 0 0 0 0 0 0 0 0 0 0 0 0 0 0 0 0 0 0 0 0 0 0 0 0 0 0 0 0 0 0 0 0 0 0 0 0 0 0 0 0 0 0 0 0 0 "/>
</feComponentTransfer>
<feComposite operator="in" in2="effect1_innerShadow_22_471" in="coloredNoise1" result="noise1Clipped" />
<feComponentTransfer in="alphaNoise" result="coloredNoise2">
<feFuncA type="discrete" tableValues="0 0 0 0 0 0 0 0 0 0 0 0 0 0 0 0 0 0 0 0 0 0 0 0 0 0 0 0 0 0 0 0 0 0 0 0 0 0 0 0 0 0 0 0 0 0 0 0 0 1 1 1 1 1 1 1 1 1 1 1 1 1 1 1 1 1 1 1 1 1 1 1 1 1 1 1 1 1 1 1 1 1 1 1 1 1 1 1 1 1 1 1 1 1 1 1 1 1 1 1 "/>
</feComponentTransfer>
<feComposite operator="in" in2="effect1_innerShadow_22_471" in="coloredNoise2" result="noise2Clipped" />
<feFlood flood-color="rgba(143, 143, 143, 0.25)" result="color1Flood" />
<feComposite operator="in" in2="noise1Clipped" in="color1Flood" result="color1" />
<feFlood flood-color="rgba(128, 128, 128, 0.25)" result="color2Flood" />
<feComposite operator="in" in2="noise2Clipped" in="color2Flood" result="color2" />
<feMerge result="effect2_noise_22_471">
<feMergeNode in="effect1_innerShadow_22_471" />
<feMergeNode in="color1" />
<feMergeNode in="color2" />
</feMerge>
</filter>
<filter id="filter4_in_22_471" x="16.5" y="25.4619" width="66.4159" height="37.0718" filterUnits="userSpaceOnUse" color-interpolation-filters="sRGB">
<feFlood flood-opacity="0" result="BackgroundImageFix"/>
<feBlend mode="normal" in="SourceGraphic" in2="BackgroundImageFix" result="shape"/>
<feColorMatrix in="SourceAlpha" type="matrix" values="0 0 0 0 0 0 0 0 0 0 0 0 0 0 0 0 0 0 127 0" result="hardAlpha"/>
<feOffset dx="0.219247" dy="0.219247"/>
<feGaussianBlur stdDeviation="0.175398"/>
<feComposite in2="hardAlpha" operator="arithmetic" k2="-1" k3="1"/>
<feColorMatrix type="matrix" values="0 0 0 0 1 0 0 0 0 1 0 0 0 0 1 0 0 0 0.9 0"/>
<feBlend mode="overlay" in2="shape" result="effect1_innerShadow_22_471"/>
<feTurbulence type="fractalNoise" baseFrequency="23.196968078613281 23.196968078613281" stitchTiles="stitch" numOctaves="3" result="noise" seed="4846" />
<feColorMatrix in="noise" type="luminanceToAlpha" result="alphaNoise" />
<feComponentTransfer in="alphaNoise" result="coloredNoise1">
<feFuncA type="discrete" tableValues="0 0 0 0 0 0 0 0 1 1 1 1 1 1 1 1 1 1 1 1 1 1 1 1 1 1 1 1 1 1 1 1 1 1 1 1 1 1 1 1 1 1 0 0 0 0 0 0 0 0 0 0 0 0 0 0 0 0 0 0 0 0 0 0 0 0 0 0 0 0 0 0 0 0 0 0 0 0 0 0 0 0 0 0 0 0 0 0 0 0 0 0 0 0 0 0 0 0 0 0 "/>
</feComponentTransfer>
<feComposite operator="in" in2="effect1_innerShadow_22_471" in="coloredNoise1" result="noise1Clipped" />
<feComponentTransfer in="alphaNoise" result="coloredNoise2">
<feFuncA type="discrete" tableValues="0 0 0 0 0 0 0 0 0 0 0 0 0 0 0 0 0 0 0 0 0 0 0 0 0 0 0 0 0 0 0 0 0 0 0 0 0 0 0 0 0 0 0 0 0 0 0 0 0 0 0 0 0 0 0 0 0 0 1 1 1 1 1 1 1 1 1 1 1 1 1 1 1 1 1 1 1 1 1 1 1 1 1 1 1 1 1 1 1 1 1 1 0 0 0 0 0 0 0 0 "/>
</feComponentTransfer>
<feComposite operator="in" in2="effect1_innerShadow_22_471" in="coloredNoise2" result="noise2Clipped" />
<feFlood flood-color="rgba(143, 143, 143, 0.25)" result="color1Flood" />
<feComposite operator="in" in2="noise1Clipped" in="color1Flood" result="color1" />
<feFlood flood-color="rgba(128, 128, 128, 0.25)" result="color2Flood" />
<feComposite operator="in" in2="noise2Clipped" in="color2Flood" result="color2" />
<feMerge result="effect2_noise_22_471">
<feMergeNode in="effect1_innerShadow_22_471" />
<feMergeNode in="color1" />
<feMergeNode in="color2" />
</feMerge>
</filter>
<filter id="filter5_n_22_471" x="16.5449" y="62.306" width="69.8907" height="41.0729" filterUnits="userSpaceOnUse" color-interpolation-filters="sRGB">
<feFlood flood-opacity="0" result="BackgroundImageFix"/>
<feBlend mode="normal" in="SourceGraphic" in2="BackgroundImageFix" result="shape"/>
<feTurbulence type="fractalNoise" baseFrequency="23.196968078613281 23.196968078613281" stitchTiles="stitch" numOctaves="3" result="noise" seed="4846" />
<feColorMatrix in="noise" type="luminanceToAlpha" result="alphaNoise" />
<feComponentTransfer in="alphaNoise" result="coloredNoise1">
<feFuncA type="discrete" tableValues="0 0 0 0 0 0 0 0 1 1 1 1 1 1 1 1 1 1 1 1 1 1 1 1 1 1 1 1 1 1 1 1 1 1 1 1 1 1 1 1 1 1 0 0 0 0 0 0 0 0 0 0 0 0 0 0 0 0 0 0 0 0 0 0 0 0 0 0 0 0 0 0 0 0 0 0 0 0 0 0 0 0 0 0 0 0 0 0 0 0 0 0 0 0 0 0 0 0 0 0 "/>
</feComponentTransfer>
<feComposite operator="in" in2="shape" in="coloredNoise1" result="noise1Clipped" />
<feComponentTransfer in="alphaNoise" result="coloredNoise2">
<feFuncA type="discrete" tableValues="0 0 0 0 0 0 0 0 0 0 0 0 0 0 0 0 0 0 0 0 0 0 0 0 0 0 0 0 0 0 0 0 0 0 0 0 0 0 0 0 0 0 0 0 0 0 0 0 0 0 0 0 0 0 0 0 0 0 1 1 1 1 1 1 1 1 1 1 1 1 1 1 1 1 1 1 1 1 1 1 1 1 1 1 1 1 1 1 1 1 1 1 0 0 0 0 0 0 0 0 "/>
</feComponentTransfer>
<feComposite operator="in" in2="shape" in="coloredNoise2" result="noise2Clipped" />
<feFlood flood-color="rgba(143, 143, 143, 0.25)" result="color1Flood" />
<feComposite operator="in" in2="noise1Clipped" in="color1Flood" result="color1" />
<feFlood flood-color="rgba(128, 128, 128, 0.25)" result="color2Flood" />
<feComposite operator="in" in2="noise2Clipped" in="color2Flood" result="color2" />
<feMerge result="effect1_noise_22_471">
<feMergeNode in="shape" />
<feMergeNode in="color1" />
<feMergeNode in="color2" />
</feMerge>
</filter>
<filter id="filter6_in_22_471" x="39.3574" y="29.7471" width="35.4526" height="32.559" filterUnits="userSpaceOnUse" color-interpolation-filters="sRGB">
<feFlood flood-opacity="0" result="BackgroundImageFix"/>
<feBlend mode="normal" in="SourceGraphic" in2="BackgroundImageFix" result="shape"/>
<feColorMatrix in="SourceAlpha" type="matrix" values="0 0 0 0 0 0 0 0 0 0 0 0 0 0 0 0 0 0 127 0" result="hardAlpha"/>
<feOffset dx="-0.538864"/>
<feGaussianBlur stdDeviation="0.866026"/>
<feComposite in2="hardAlpha" operator="arithmetic" k2="-1" k3="1"/>
<feColorMatrix type="matrix" values="0 0 0 0 0 0 0 0 0 0 0 0 0 0 0 0 0 0 0.39 0"/>
<feBlend mode="normal" in2="shape" result="effect1_innerShadow_22_471"/>
<feTurbulence type="fractalNoise" baseFrequency="7.6017756462097168 7.6017756462097168" stitchTiles="stitch" numOctaves="3" result="noise" seed="4846" />
<feColorMatrix in="noise" type="luminanceToAlpha" result="alphaNoise" />
<feComponentTransfer in="alphaNoise" result="coloredNoise1">
<feFuncA type="discrete" tableValues="1 1 1 1 1 1 1 1 1 1 1 1 1 1 1 1 1 1 1 1 1 1 1 1 1 1 1 1 1 1 1 1 1 1 1 1 1 1 1 1 1 1 1 1 1 1 1 1 1 1 1 0 0 0 0 0 0 0 0 0 0 0 0 0 0 0 0 0 0 0 0 0 0 0 0 0 0 0 0 0 0 0 0 0 0 0 0 0 0 0 0 0 0 0 0 0 0 0 0 0 "/>
</feComponentTransfer>
<feComposite operator="in" in2="effect1_innerShadow_22_471" in="coloredNoise1" result="noise1Clipped" />
<feComponentTransfer in="alphaNoise" result="coloredNoise2">
<feFuncA type="discrete" tableValues="0 0 0 0 0 0 0 0 0 0 0 0 0 0 0 0 0 0 0 0 0 0 0 0 0 0 0 0 0 0 0 0 0 0 0 0 0 0 0 0 0 0 0 0 0 0 0 0 0 1 1 1 1 1 1 1 1 1 1 1 1 1 1 1 1 1 1 1 1 1 1 1 1 1 1 1 1 1 1 1 1 1 1 1 1 1 1 1 1 1 1 1 1 1 1 1 1 1 1 1 "/>
</feComponentTransfer>
<feComposite operator="in" in2="effect1_innerShadow_22_471" in="coloredNoise2" result="noise2Clipped" />
<feFlood flood-color="rgba(143, 143, 143, 0.25)" result="color1Flood" />
<feComposite operator="in" in2="noise1Clipped" in="color1Flood" result="color1" />
<feFlood flood-color="rgba(128, 128, 128, 0.25)" result="color2Flood" />
<feComposite operator="in" in2="noise2Clipped" in="color2Flood" result="color2" />
<feMerge result="effect2_noise_22_471">
<feMergeNode in="effect1_innerShadow_22_471" />
<feMergeNode in="color1" />
<feMergeNode in="color2" />
</feMerge>
</filter>
<filter id="filter7_in_22_471" x="38.7628" y="62.306" width="38.3508" height="37.024" filterUnits="userSpaceOnUse" color-interpolation-filters="sRGB">
<feFlood flood-opacity="0" result="BackgroundImageFix"/>
<feBlend mode="normal" in="SourceGraphic" in2="BackgroundImageFix" result="shape"/>
<feColorMatrix in="SourceAlpha" type="matrix" values="0 0 0 0 0 0 0 0 0 0 0 0 0 0 0 0 0 0 127 0" result="hardAlpha"/>
<feOffset dx="-0.538864"/>
<feGaussianBlur stdDeviation="0.866026"/>
<feComposite in2="hardAlpha" operator="arithmetic" k2="-1" k3="1"/>
<feColorMatrix type="matrix" values="0 0 0 0 0 0 0 0 0 0 0 0 0 0 0 0 0 0 0.39 0"/>
<feBlend mode="normal" in2="shape" result="effect1_innerShadow_22_471"/>
<feTurbulence type="fractalNoise" baseFrequency="7.6017756462097168 7.6017756462097168" stitchTiles="stitch" numOctaves="3" result="noise" seed="4846" />
<feColorMatrix in="noise" type="luminanceToAlpha" result="alphaNoise" />
<feComponentTransfer in="alphaNoise" result="coloredNoise1">
<feFuncA type="discrete" tableValues="1 1 1 1 1 1 1 1 1 1 1 1 1 1 1 1 1 1 1 1 1 1 1 1 1 1 1 1 1 1 1 1 1 1 1 1 1 1 1 1 1 1 1 1 1 1 1 1 1 1 1 0 0 0 0 0 0 0 0 0 0 0 0 0 0 0 0 0 0 0 0 0 0 0 0 0 0 0 0 0 0 0 0 0 0 0 0 0 0 0 0 0 0 0 0 0 0 0 0 0 "/>
</feComponentTransfer>
<feComposite operator="in" in2="effect1_innerShadow_22_471" in="coloredNoise1" result="noise1Clipped" />
<feComponentTransfer in="alphaNoise" result="coloredNoise2">
<feFuncA type="discrete" tableValues="0 0 0 0 0 0 0 0 0 0 0 0 0 0 0 0 0 0 0 0 0 0 0 0 0 0 0 0 0 0 0 0 0 0 0 0 0 0 0 0 0 0 0 0 0 0 0 0 0 1 1 1 1 1 1 1 1 1 1 1 1 1 1 1 1 1 1 1 1 1 1 1 1 1 1 1 1 1 1 1 1 1 1 1 1 1 1 1 1 1 1 1 1 1 1 1 1 1 1 1 "/>
</feComponentTransfer>
<feComposite operator="in" in2="effect1_innerShadow_22_471" in="coloredNoise2" result="noise2Clipped" />
<feFlood flood-color="rgba(143, 143, 143, 0.25)" result="color1Flood" />
<feComposite operator="in" in2="noise1Clipped" in="color1Flood" result="color1" />
<feFlood flood-color="rgba(128, 128, 128, 0.25)" result="color2Flood" />
<feComposite operator="in" in2="noise2Clipped" in="color2Flood" result="color2" />
<feMerge result="effect2_noise_22_471">
<feMergeNode in="effect1_innerShadow_22_471" />
<feMergeNode in="color1" />
<feMergeNode in="color2" />
</feMerge>
</filter>
<linearGradient id="paint0_linear_22_471" x1="18.1191" y1="30.6393" x2="17.6123" y2="15.735" gradientUnits="userSpaceOnUse">
<stop stop-color="#686868"/>
<stop offset="0.683864" stop-color="#8F8F8F"/>
</linearGradient>
<radialGradient id="paint1_radial_22_471" cx="0" cy="0" r="1" gradientUnits="userSpaceOnUse" gradientTransform="translate(18.2618 33.7076) rotate(-69.6562) scale(4.55579 4.75699)">
<stop offset="0.37802" stop-opacity="0"/>
<stop offset="0.849363"/>
</radialGradient>
<radialGradient id="paint2_radial_22_471" cx="0" cy="0" r="1" gradientUnits="userSpaceOnUse" gradientTransform="translate(18.3616 26.127) rotate(90) scale(4.69276 1.85494)">
<stop offset="0.558993" stop-opacity="0"/>
<stop offset="1" stop-opacity="0.49"/>
</radialGradient>
<linearGradient id="paint3_linear_22_471" x1="42.5811" y1="50.258" x2="33.556" y2="50.3778" gradientUnits="userSpaceOnUse">
<stop offset="0.278097" stop-color="#4B4B4B"/>
<stop offset="0.361706" stop-color="#535353"/>
<stop offset="0.472564" stop-color="#555555"/>
<stop offset="0.581409" stop-color="#4B4B4B"/>
<stop offset="0.69647" stop-color="#4B4B4B"/>
<stop offset="0.96043" stop-color="#6F6F6F"/>
</linearGradient>
<linearGradient id="paint4_linear_22_471" x1="43.5742" y1="43.3205" x2="36.0309" y2="43.1921" gradientUnits="userSpaceOnUse">
<stop offset="0.327465" stop-opacity="0"/>
<stop offset="0.793114"/>
</linearGradient>
<radialGradient id="paint5_radial_22_471" cx="0" cy="0" r="1" gradientUnits="userSpaceOnUse" gradientTransform="translate(39.3017 49.779) rotate(20.9714) scale(7.63974 18.1685)">
<stop offset="0.346429" stop-opacity="0"/>
<stop offset="1"/>
</radialGradient>
<linearGradient id="paint6_linear_22_471" x1="56.7881" y1="84.1073" x2="30.7819" y2="84.9733" gradientUnits="userSpaceOnUse">
<stop offset="0.278097" stop-color="#4B4B4B"/>
<stop offset="0.361706" stop-color="#535353"/>
<stop offset="0.472564" stop-color="#555555"/>
<stop offset="0.581409" stop-color="#4B4B4B"/>
<stop offset="0.69647" stop-color="#4B4B4B"/>
<stop offset="0.96043" stop-color="#6F6F6F"/>
</linearGradient>
<linearGradient id="paint7_linear_22_471" x1="59.6523" y1="76.1362" x2="37.9293" y2="75.2081" gradientUnits="userSpaceOnUse">
<stop offset="0.327465" stop-opacity="0"/>
<stop offset="0.793114"/>
</linearGradient>
<radialGradient id="paint8_radial_22_471" cx="0" cy="0" r="1" gradientUnits="userSpaceOnUse" gradientTransform="translate(47.3295 83.5569) rotate(8.6815) scale(20.8135 22.0999)">
<stop offset="0.346429" stop-opacity="0"/>
<stop offset="1"/>
</radialGradient>
<linearGradient id="paint9_linear_22_471" x1="15.0967" y1="104.485" x2="36.5844" y2="104.657" gradientUnits="userSpaceOnUse">
<stop offset="0.0355261"/>
<stop offset="0.539185"/>
<stop offset="0.883406" stop-opacity="0"/>
<stop offset="1"/>
</linearGradient>
<linearGradient id="paint10_linear_22_471" x1="28.1016" y1="81.9019" x2="25.2066" y2="94.2885" gradientUnits="userSpaceOnUse">
<stop stop-opacity="0"/>
<stop offset="1"/>
</linearGradient>
<linearGradient id="paint11_linear_22_471" x1="29.7619" y1="39.0853" x2="25.4971" y2="30.7807" gradientUnits="userSpaceOnUse">
<stop stop-opacity="0"/>
<stop offset="1"/>
</linearGradient>
<linearGradient id="paint12_linear_22_471" x1="35.3198" y1="35.0016" x2="35.3458" y2="35.0018" gradientUnits="userSpaceOnUse">
<stop offset="0.0355261"/>
<stop offset="0.539185"/>
<stop offset="0.883406" stop-opacity="0"/>
<stop offset="1"/>
</linearGradient>
<linearGradient id="paint13_linear_22_471" x1="35.3355" y1="34.9742" x2="35.332" y2="34.9892" gradientUnits="userSpaceOnUse">
<stop stop-opacity="0"/>
<stop offset="1"/>
</linearGradient>
<linearGradient id="paint14_linear_22_471" x1="35.3375" y1="34.9223" x2="35.3323" y2="34.9122" gradientUnits="userSpaceOnUse">
<stop stop-opacity="0"/>
<stop offset="1"/>
</linearGradient>
<linearGradient id="paint15_linear_22_471" x1="35.6554" y1="34.1249" x2="35.7073" y2="34.1256" gradientUnits="userSpaceOnUse">
<stop offset="0.0355261"/>
<stop offset="0.539185"/>
<stop offset="0.883406" stop-opacity="0"/>
<stop offset="1"/>
</linearGradient>
<linearGradient id="paint16_linear_22_471" x1="35.6868" y1="34.0907" x2="35.6839" y2="34.1101" gradientUnits="userSpaceOnUse">
<stop stop-opacity="0"/>
<stop offset="1"/>
</linearGradient>
<linearGradient id="paint17_linear_22_471" x1="35.6908" y1="34.0258" x2="35.6862" y2="34.0114" gradientUnits="userSpaceOnUse">
<stop stop-opacity="0"/>
<stop offset="1"/>
</linearGradient>
<linearGradient id="paint18_linear_22_471" x1="35.4754" y1="34.5516" x2="35.5273" y2="34.5525" gradientUnits="userSpaceOnUse">
<stop offset="0.0355261"/>
<stop offset="0.539185"/>
<stop offset="0.883406" stop-opacity="0"/>
<stop offset="1"/>
</linearGradient>
<linearGradient id="paint19_linear_22_471" x1="35.5069" y1="34.5243" x2="35.505" y2="34.5399" gradientUnits="userSpaceOnUse">
<stop stop-opacity="0"/>
<stop offset="1"/>
</linearGradient>
<linearGradient id="paint20_linear_22_471" x1="35.5109" y1="34.4723" x2="35.5078" y2="34.4604" gradientUnits="userSpaceOnUse">
<stop stop-opacity="0"/>
<stop offset="1"/>
</linearGradient>
<linearGradient id="paint21_linear_22_471" x1="18.164" y1="102.576" x2="17.661" y2="87.7278" gradientUnits="userSpaceOnUse">
<stop stop-color="#686868"/>
<stop offset="0.683864" stop-color="#8F8F8F"/>
</linearGradient>
<radialGradient id="paint22_radial_22_471" cx="0" cy="0" r="1" gradientUnits="userSpaceOnUse" gradientTransform="translate(18.3067 105.633) rotate(-69.5855) scale(4.54068 4.75481)">
<stop offset="0.37802" stop-opacity="0"/>
<stop offset="0.849363"/>
</radialGradient>
<radialGradient id="paint23_radial_22_471" cx="0" cy="0" r="1" gradientUnits="userSpaceOnUse" gradientTransform="translate(18.4066 98.0808) rotate(90) scale(4.67505 1.85494)">
<stop offset="0.558993" stop-opacity="0"/>
<stop offset="1" stop-opacity="0.49"/>
</radialGradient>
<linearGradient id="paint24_linear_22_471" x1="21.2013" y1="77.669" x2="70.9929" y2="23.0978" gradientUnits="userSpaceOnUse">
<stop/>
<stop offset="0.0721154" stop-opacity="0"/>
<stop offset="0.470246" stop-color="#ABABAB" stop-opacity="0"/>
<stop offset="0.573962"/>
<stop offset="0.666274" stop-opacity="0.869541"/>
<stop offset="0.883406" stop-opacity="0"/>
<stop offset="1"/>
</linearGradient>
<linearGradient id="paint25_linear_22_471" x1="49.5955" y1="35.7136" x2="46.0455" y2="27.7838" gradientUnits="userSpaceOnUse">
<stop stop-color="white" stop-opacity="0"/>
<stop offset="1" stop-color="white"/>
</linearGradient>
<linearGradient id="paint26_linear_22_471" x1="24.7915" y1="100.721" x2="66.4399" y2="49.9045" gradientUnits="userSpaceOnUse">
<stop/>
<stop offset="0.0721154" stop-opacity="0"/>
<stop offset="0.470246" stop-opacity="0"/>
<stop offset="0.602192"/>
<stop offset="0.883406" stop-opacity="0"/>
<stop offset="1"/>
</linearGradient>
<linearGradient id="paint27_linear_22_471" x1="51.4874" y1="73.7414" x2="47.3833" y2="65.0643" gradientUnits="userSpaceOnUse">
<stop stop-opacity="0"/>
<stop offset="1"/>
</linearGradient>
<linearGradient id="paint28_linear_22_471" x1="74.9257" y1="73.3581" x2="69.7455" y2="61.6805" gradientUnits="userSpaceOnUse">
<stop stop-opacity="0"/>
<stop offset="1"/>
</linearGradient>
<radialGradient id="paint29_radial_22_471" cx="0" cy="0" r="1" gradientUnits="userSpaceOnUse" gradientTransform="translate(77.9099 46.0433) rotate(-177.958) scale(44.5948 19.1909)">
<stop stop-color="#C1C1C1"/>
<stop offset="0.972244" stop-color="#4B4B4B"/>
</radialGradient>
<linearGradient id="paint30_linear_22_471" x1="52.5616" y1="42.0622" x2="42.8887" y2="42.0622" gradientUnits="userSpaceOnUse">
<stop stop-opacity="0"/>
<stop offset="0.793114"/>
</linearGradient>
<linearGradient id="paint31_linear_22_471" x1="67.5101" y1="42.0622" x2="73.3542" y2="42.0622" gradientUnits="userSpaceOnUse">
<stop stop-opacity="0"/>
<stop offset="0.793114"/>
</linearGradient>
<radialGradient id="paint32_radial_22_471" cx="0" cy="0" r="1" gradientUnits="userSpaceOnUse" gradientTransform="translate(80.4742 80.8181) rotate(-177.856) scale(48.3483 21.8438)">
<stop stop-color="#C1C1C1"/>
<stop offset="0.972244" stop-color="#4B4B4B"/>
</radialGradient>
<linearGradient id="paint33_linear_22_471" x1="52.9942" y1="76.2863" x2="42.5078" y2="76.2863" gradientUnits="userSpaceOnUse">
<stop stop-opacity="0"/>
<stop offset="0.793114"/>
</linearGradient>
<linearGradient id="paint34_linear_22_471" x1="69.1998" y1="76.2863" x2="75.5354" y2="76.2863" gradientUnits="userSpaceOnUse">
<stop stop-opacity="0"/>
<stop offset="0.793114"/>
</linearGradient>
<linearGradient id="paint35_linear_22_471" x1="62.4237" y1="86.7495" x2="52.6844" y2="99.3274" gradientUnits="userSpaceOnUse">
<stop stop-opacity="0"/>
<stop offset="1"/>
</linearGradient>
<radialGradient id="paint36_radial_22_471" cx="0" cy="0" r="1" gradientUnits="userSpaceOnUse" gradientTransform="translate(58.2076 78.6847) rotate(107.708) scale(19.6472 34.665)">
<stop offset="0.737442" stop-color="white" stop-opacity="0"/>
<stop offset="1" stop-color="white"/>
</radialGradient>
</defs>
</svg>
