<?xml version="1.0" encoding="UTF-8"?>
<svg id="uuid-e6e05ed1-1f6b-4a01-9cf5-2679d9143dc9" data-name="Layer 2" xmlns="http://www.w3.org/2000/svg" width="160.82" height="185.62" viewBox="0 0 160.82 185.62">
  <g id="uuid-837d4f66-568a-4f15-8395-1a12e7ca7aa8" data-name="Layer 2">
    <path d="M151.41,140.1c-2.92-3.45-2.38-7.57-2.29-8.21V9.62c-1.02.12-6.15.84-9.68,5.4-2.59,3.34-2.89,6.89-2.93,8.21v109c-3.17,4.42-6.34,8.84-9.5,13.26-1.64-6.26-3.29-12.52-4.93-18.77V22.06c.78-1.64,1.96-3.68,3.75-5.75,2.96-3.41,6.21-5.32,8.33-6.34-3.09-3.09-6.18-6.18-9.27-9.27-4.75,3.05-10.07,6.97-15.49,11.97-8.4,7.74-14.38,15.6-18.54,22.06L59.18,0c-5.27,1.18-12.2,3.39-19.48,7.74-12.68,7.6-19.99,17.88-23.84,24.66-1.05,1.86-.59,4.2,1.07,5.55l3.27,2.65c2.02,1.63,5.01,1.17,6.43-1l4.5-6.87c.55-.84,1.43-1.3,2.34-1.35,1.48-.08,2.38.97,2.47,1.08,3.76,1.42,10.71,4.62,17.12,11.43,6.46,6.86,9.23,14.05,10.41,17.9,1.6,1.7,2.35,3.89,2.29,6.05-.11,3.42-2.24,5.51-2.65,5.9-7.66,10.66-18.13,23.21-32.1,35.63-9.97,8.87-19.7,15.87-28.39,21.35-.18.15-3.02,2.5-2.58,6.1.32,2.64,2.19,4.15,2.58,4.46,5.54,1.69,13.09,4.71,20.89,10.33,4.61,3.32,8.24,6.79,11.03,9.86.82,1.49,2.35,4.75,2.35,9.15s-1.53,7.66-2.35,9.15c2.89,1.96,5.79,3.91,8.68,5.87,4.76-4.54,9.88-10.02,14.93-16.57,8.71-11.31,14.51-22.29,18.4-31.3,3.16,1.7,7.82,4.72,11.73,9.86,7.68,10.07,5.18,18.72,11.5,26.28,3.13,3.74,9.12,8.07,21.82,8.92,13.07-13.07,26.15-26.15,39.22-39.22-.37.05-5.84.73-9.42-3.49ZM89.1,97.69c-2.06,16.57-12.17,26.66-15.69,29.8-.42.37-.87.66-1.4.85-2.64.97-6.42,2.08-11.05,2.5-6.22.56-10.99-.38-15.38-1.25-1.67-.33-3.64-.78-5.85-1.41-3.33-.95-4.39-5.13-1.92-7.56,7.91-7.76,16.41-17.19,24.72-28.49,5.5-7.48,10.17-14.75,14.13-21.59,1.8-3.12,6.37-2.91,7.93.33,2.93,6.08,5.93,15.43,4.51,26.81ZM97.03,48.68c-.26,1.02-.71,2.24-1.51,3.46-2.19,3.38-5.58,4.69-7.36,5.18-.59.16-1.2.08-1.72-.25-2.41-1.55-5.69-4.08-8.73-7.96-2.28-2.91-3.78-5.77-4.78-8.14-.6-1.43.49-2.98,2.04-2.96,2.62.02,5.95.38,9.61,1.58,5.65,1.86,9.56,4.91,11.83,7.03.57.53.82,1.31.63,2.06Z"/>
  </g>
</svg>