<svg width="38" height="38" viewBox="0 0 38 38" fill="none" xmlns="http://www.w3.org/2000/svg">
<path d="M10.3428 26.9902C4.62012 21.2871 0.342773 14.5488 0.342773 8.98242C0.342773 6.52148 1.20215 4.33398 2.82324 2.77148C3.95605 1.67773 5.53809 0.681641 6.84668 0.681641C7.90137 0.681641 8.60449 1.48242 9.54199 2.79102L12.8232 7.36133C13.5459 8.39648 13.7998 9.2168 13.7998 9.97852C13.7998 10.6426 13.6631 11.1113 13.1553 11.9707L11.3193 15.1152C11.1631 15.3887 11.0264 15.6035 11.0264 15.8574C11.0264 16.1699 11.1436 16.4824 11.2412 16.6777C11.9834 18.1426 13.4287 20.0371 15.2842 21.8926C17.1396 23.748 19.2295 25.3887 20.7139 26.0723C21.085 26.2285 21.3389 26.3262 21.71 26.3262C21.9834 26.3262 22.1396 26.2871 22.5107 26.0723L25.6357 24.3535C26.6514 23.8066 27.1592 23.6895 27.7646 23.6895C28.4678 23.6895 28.9951 23.8457 30.1865 24.6855L34.9521 28.1035C36.2412 29.002 36.749 29.7637 36.749 30.584C36.749 31.6387 36.2607 32.8301 34.835 34.4316C33.3506 36.0918 31.085 37.127 28.4873 37.127C22.96 37.127 16.085 32.752 10.3428 26.9902ZM22.4912 17.4395C21.6709 17.4395 21.0459 16.8535 21.0459 16.0918C21.0459 15.6621 21.1826 15.3301 21.5146 14.998L29.9131 6.58008L33.1943 3.57227L27.4521 3.88477H24.5029C23.7412 3.88477 23.1357 3.31836 23.0967 2.55664C23.0576 1.75586 23.7021 1.11133 24.5029 1.11133H35.8506C36.8857 1.11133 37.3936 1.63867 37.3936 2.6543V13.9629C37.3936 14.7637 36.71 15.4082 35.9287 15.3691C35.167 15.3301 34.6006 14.7246 34.6006 13.9629V11.0527L34.9131 5.33008L31.9248 8.57227L23.5068 17.0098C23.2139 17.3027 22.9014 17.4395 22.4912 17.4395Z" fill="#8C8C8C" fill-opacity="0.5"/>
</svg>
