<svg width="17" height="17" viewBox="0 0 17 17" fill="none" xmlns="http://www.w3.org/2000/svg">
<path d="M16.3715 8.05666L15.1838 7.0047C14.9463 6.80109 14.8784 6.46175 15.0142 6.19028L15.5232 5.13832C15.7268 4.7311 15.4553 4.22209 15.0142 4.18816L13.7247 4.01849C13.4192 3.98455 13.1817 3.74701 13.1478 3.4416L12.9781 2.18604C12.9102 1.71096 12.4352 1.47342 12.0279 1.67702L10.976 2.18604C10.7045 2.32177 10.3652 2.2539 10.1616 2.01636L9.1096 0.828666C8.83813 0.523257 8.36305 0.523257 8.09157 0.828666L7.03961 2.01636C6.836 2.2539 6.49666 2.32177 6.22519 2.18604L5.17323 1.67702C4.76602 1.47342 4.257 1.74489 4.22307 2.18604L4.0534 3.47554C4.01946 3.78095 3.78192 4.01849 3.47651 4.05242L2.18701 4.22209C1.71193 4.28996 1.47439 4.76504 1.678 5.17225L2.18701 6.22421C2.32275 6.49569 2.25488 6.83503 2.01734 7.03863L0.829642 8.0906C0.524234 8.36207 0.524234 8.83715 0.829642 9.10862L2.01734 10.1606C2.25488 10.3642 2.32275 10.7035 2.18701 10.975L1.678 12.027C1.47439 12.4342 1.74587 12.9432 2.18701 12.9771L3.47651 13.1468C3.78192 13.1468 4.01946 13.4183 4.0534 13.7237L4.22307 15.0132C4.29094 15.4883 4.76602 15.7258 5.17323 15.5222L6.22519 15.0132C6.49666 14.8774 6.836 14.9453 7.03961 15.1829L8.09157 16.3706C8.36305 16.676 8.83813 16.676 9.1096 16.3706L10.1616 15.1829C10.3652 14.9453 10.7045 14.8774 10.976 15.0132L12.0279 15.5222C12.4352 15.7258 12.9442 15.4543 12.9781 15.0132L13.1478 13.7237C13.1478 13.4183 13.4192 13.1807 13.7247 13.1468L15.0142 12.9093C15.4892 12.8414 15.7268 12.3663 15.5232 11.9591L15.0142 10.9071C14.8784 10.6357 14.9463 10.2963 15.1838 10.0927L16.3715 9.04075C16.6769 8.80321 16.6769 8.32814 16.3715 8.05666Z" fill="#FEB82D"/>
</svg>
