<svg width="49" height="32" viewBox="0 0 49 32" fill="none" xmlns="http://www.w3.org/2000/svg">
<path d="M6.64417 31.7637C2.71838 31.7637 0.374634 29.498 0.374634 25.5723V6.2168C0.374634 2.31055 2.89417 0.0449219 6.64417 0.0449219H27.816C31.7418 0.0449219 33.8903 2.31055 33.8903 6.2168V25.5723C33.8903 29.498 31.5465 31.7637 27.6207 31.7637H6.64417ZM36.5465 21.666V10.123L43.6559 3.99023C44.3199 3.4043 45.1012 3.0332 45.8043 3.0332C47.3278 3.0332 48.3239 4.14648 48.3239 5.74805V26.0605C48.3239 27.6621 47.3278 28.7754 45.8043 28.7754C45.1012 28.7754 44.3199 28.4043 43.6559 27.8184L36.5465 21.666Z" fill="#8C8C8C" fill-opacity="0.5"/>
</svg>
